<mxfile host="app.diagrams.net" agent="Mozilla/5.0 (Windows NT 10.0; Win64; x64) AppleWebKit/537.36 (KHTML, like Gecko) Chrome/134.0.0.0 Safari/537.36" version="26.2.4" pages="3">
  <diagram name="modo conceitual" id="gmQAnWtZ3CZXpdLnxnPS">
    <mxGraphModel dx="1044" dy="562" grid="1" gridSize="10" guides="1" tooltips="1" connect="1" arrows="1" fold="1" page="1" pageScale="1" pageWidth="827" pageHeight="1169" math="0" shadow="0">
      <root>
        <mxCell id="IwESJbL707qGk0BUnpOs-0" />
        <mxCell id="IwESJbL707qGk0BUnpOs-1" parent="IwESJbL707qGk0BUnpOs-0" />
        <mxCell id="M-E4bk8kE6pBo_uOj6ZA-2" style="edgeStyle=orthogonalEdgeStyle;rounded=0;orthogonalLoop=1;jettySize=auto;html=1;entryX=0;entryY=0.5;entryDx=0;entryDy=0;endArrow=none;startFill=0;" edge="1" parent="IwESJbL707qGk0BUnpOs-1" source="IwESJbL707qGk0BUnpOs-3" target="IwESJbL707qGk0BUnpOs-17">
          <mxGeometry relative="1" as="geometry" />
        </mxCell>
        <mxCell id="IwESJbL707qGk0BUnpOs-3" value="Cliente" style="whiteSpace=wrap;html=1;align=center;" parent="IwESJbL707qGk0BUnpOs-1" vertex="1">
          <mxGeometry x="20" y="10" width="170" height="90" as="geometry" />
        </mxCell>
        <mxCell id="IwESJbL707qGk0BUnpOs-4" value="Produtos" style="whiteSpace=wrap;html=1;align=center;" parent="IwESJbL707qGk0BUnpOs-1" vertex="1">
          <mxGeometry x="320.5" y="430" width="170" height="80" as="geometry" />
        </mxCell>
        <mxCell id="M-E4bk8kE6pBo_uOj6ZA-3" style="edgeStyle=orthogonalEdgeStyle;rounded=0;orthogonalLoop=1;jettySize=auto;html=1;entryX=1;entryY=0.5;entryDx=0;entryDy=0;endArrow=none;startFill=0;" edge="1" parent="IwESJbL707qGk0BUnpOs-1" source="IwESJbL707qGk0BUnpOs-6" target="IwESJbL707qGk0BUnpOs-17">
          <mxGeometry relative="1" as="geometry" />
        </mxCell>
        <mxCell id="M-E4bk8kE6pBo_uOj6ZA-4" style="edgeStyle=orthogonalEdgeStyle;rounded=0;orthogonalLoop=1;jettySize=auto;html=1;entryX=0;entryY=0.5;entryDx=0;entryDy=0;endArrow=none;startFill=0;" edge="1" parent="IwESJbL707qGk0BUnpOs-1" source="IwESJbL707qGk0BUnpOs-6" target="IwESJbL707qGk0BUnpOs-13">
          <mxGeometry relative="1" as="geometry" />
        </mxCell>
        <mxCell id="Oj0OIYRjHey6AUd6In8l-2" style="edgeStyle=orthogonalEdgeStyle;rounded=0;orthogonalLoop=1;jettySize=auto;html=1;endArrow=none;startFill=0;" edge="1" parent="IwESJbL707qGk0BUnpOs-1" source="IwESJbL707qGk0BUnpOs-6" target="IwESJbL707qGk0BUnpOs-15">
          <mxGeometry relative="1" as="geometry" />
        </mxCell>
        <mxCell id="IwESJbL707qGk0BUnpOs-6" value="Pedidos" style="whiteSpace=wrap;html=1;align=center;" parent="IwESJbL707qGk0BUnpOs-1" vertex="1">
          <mxGeometry x="330" y="20" width="151" height="70" as="geometry" />
        </mxCell>
        <mxCell id="IwESJbL707qGk0BUnpOs-8" value="Pgamentos" style="whiteSpace=wrap;html=1;align=center;" parent="IwESJbL707qGk0BUnpOs-1" vertex="1">
          <mxGeometry x="657" y="15" width="170" height="80" as="geometry" />
        </mxCell>
        <mxCell id="Oj0OIYRjHey6AUd6In8l-5" style="edgeStyle=orthogonalEdgeStyle;rounded=0;orthogonalLoop=1;jettySize=auto;html=1;entryX=0.5;entryY=0;entryDx=0;entryDy=0;endArrow=none;startFill=0;" edge="1" parent="IwESJbL707qGk0BUnpOs-1" source="IwESJbL707qGk0BUnpOs-11" target="IwESJbL707qGk0BUnpOs-4">
          <mxGeometry relative="1" as="geometry" />
        </mxCell>
        <mxCell id="IwESJbL707qGk0BUnpOs-11" value="possui" style="shape=rhombus;perimeter=rhombusPerimeter;whiteSpace=wrap;html=1;align=center;" parent="IwESJbL707qGk0BUnpOs-1" vertex="1">
          <mxGeometry x="365.5" y="340" width="80" height="42.5" as="geometry" />
        </mxCell>
        <mxCell id="Oj0OIYRjHey6AUd6In8l-1" style="edgeStyle=orthogonalEdgeStyle;rounded=0;orthogonalLoop=1;jettySize=auto;html=1;endArrow=none;startFill=0;" edge="1" parent="IwESJbL707qGk0BUnpOs-1" source="IwESJbL707qGk0BUnpOs-13" target="IwESJbL707qGk0BUnpOs-8">
          <mxGeometry relative="1" as="geometry" />
        </mxCell>
        <mxCell id="IwESJbL707qGk0BUnpOs-13" value="possui" style="shape=rhombus;perimeter=rhombusPerimeter;whiteSpace=wrap;html=1;align=center;" parent="IwESJbL707qGk0BUnpOs-1" vertex="1">
          <mxGeometry x="520" y="36.25" width="80" height="37.5" as="geometry" />
        </mxCell>
        <mxCell id="Oj0OIYRjHey6AUd6In8l-3" style="edgeStyle=orthogonalEdgeStyle;rounded=0;orthogonalLoop=1;jettySize=auto;html=1;endArrow=none;startFill=0;" edge="1" parent="IwESJbL707qGk0BUnpOs-1" source="IwESJbL707qGk0BUnpOs-15" target="M-E4bk8kE6pBo_uOj6ZA-1">
          <mxGeometry relative="1" as="geometry" />
        </mxCell>
        <mxCell id="IwESJbL707qGk0BUnpOs-15" value="possui" style="shape=rhombus;perimeter=rhombusPerimeter;whiteSpace=wrap;html=1;align=center;" parent="IwESJbL707qGk0BUnpOs-1" vertex="1">
          <mxGeometry x="370.5" y="120" width="70" height="40" as="geometry" />
        </mxCell>
        <mxCell id="IwESJbL707qGk0BUnpOs-17" value="possui" style="shape=rhombus;perimeter=rhombusPerimeter;whiteSpace=wrap;html=1;align=center;" parent="IwESJbL707qGk0BUnpOs-1" vertex="1">
          <mxGeometry x="220" y="33.75" width="75" height="42.5" as="geometry" />
        </mxCell>
        <mxCell id="Oj0OIYRjHey6AUd6In8l-4" style="edgeStyle=orthogonalEdgeStyle;rounded=0;orthogonalLoop=1;jettySize=auto;html=1;entryX=0.5;entryY=0;entryDx=0;entryDy=0;endArrow=none;startFill=0;" edge="1" parent="IwESJbL707qGk0BUnpOs-1" source="M-E4bk8kE6pBo_uOj6ZA-1" target="IwESJbL707qGk0BUnpOs-11">
          <mxGeometry relative="1" as="geometry" />
        </mxCell>
        <mxCell id="M-E4bk8kE6pBo_uOj6ZA-1" value="Item do pedido" style="whiteSpace=wrap;html=1;align=center;" vertex="1" parent="IwESJbL707qGk0BUnpOs-1">
          <mxGeometry x="320.5" y="210" width="170" height="100" as="geometry" />
        </mxCell>
      </root>
    </mxGraphModel>
  </diagram>
  <diagram name="modo logico" id="k04nsmrxvsta0dQ7ZOSu">
    <mxGraphModel dx="1044" dy="562" grid="1" gridSize="10" guides="1" tooltips="1" connect="1" arrows="1" fold="1" page="1" pageScale="1" pageWidth="827" pageHeight="1169" math="0" shadow="0">
      <root>
        <mxCell id="Ie0WVEqrF0VkaRGyWmDQ-0" />
        <mxCell id="Ie0WVEqrF0VkaRGyWmDQ-1" parent="Ie0WVEqrF0VkaRGyWmDQ-0" />
        <mxCell id="Ie0WVEqrF0VkaRGyWmDQ-2" style="edgeStyle=orthogonalEdgeStyle;rounded=0;orthogonalLoop=1;jettySize=auto;html=1;entryX=0;entryY=0.5;entryDx=0;entryDy=0;endArrow=none;startFill=0;" edge="1" parent="Ie0WVEqrF0VkaRGyWmDQ-1" source="Ie0WVEqrF0VkaRGyWmDQ-3" target="Ie0WVEqrF0VkaRGyWmDQ-16">
          <mxGeometry relative="1" as="geometry" />
        </mxCell>
        <mxCell id="Ie0WVEqrF0VkaRGyWmDQ-3" value="Cliente" style="whiteSpace=wrap;html=1;align=center;" vertex="1" parent="Ie0WVEqrF0VkaRGyWmDQ-1">
          <mxGeometry x="10" y="10" width="170" height="90" as="geometry" />
        </mxCell>
        <mxCell id="Ie0WVEqrF0VkaRGyWmDQ-5" value="Produtos" style="whiteSpace=wrap;html=1;align=center;" vertex="1" parent="Ie0WVEqrF0VkaRGyWmDQ-1">
          <mxGeometry x="320.5" y="420" width="170" height="80" as="geometry" />
        </mxCell>
        <mxCell id="Ie0WVEqrF0VkaRGyWmDQ-6" style="edgeStyle=orthogonalEdgeStyle;rounded=0;orthogonalLoop=1;jettySize=auto;html=1;entryX=1;entryY=0.5;entryDx=0;entryDy=0;endArrow=none;startFill=0;" edge="1" parent="Ie0WVEqrF0VkaRGyWmDQ-1" source="Ie0WVEqrF0VkaRGyWmDQ-8" target="Ie0WVEqrF0VkaRGyWmDQ-16">
          <mxGeometry relative="1" as="geometry" />
        </mxCell>
        <mxCell id="Ie0WVEqrF0VkaRGyWmDQ-7" style="edgeStyle=orthogonalEdgeStyle;rounded=0;orthogonalLoop=1;jettySize=auto;html=1;entryX=0;entryY=0.5;entryDx=0;entryDy=0;endArrow=none;startFill=0;" edge="1" parent="Ie0WVEqrF0VkaRGyWmDQ-1" source="Ie0WVEqrF0VkaRGyWmDQ-8" target="Ie0WVEqrF0VkaRGyWmDQ-13">
          <mxGeometry relative="1" as="geometry" />
        </mxCell>
        <mxCell id="Ie0WVEqrF0VkaRGyWmDQ-8" value="Pedidos" style="whiteSpace=wrap;html=1;align=center;" vertex="1" parent="Ie0WVEqrF0VkaRGyWmDQ-1">
          <mxGeometry x="330" y="20" width="151" height="70" as="geometry" />
        </mxCell>
        <mxCell id="Ie0WVEqrF0VkaRGyWmDQ-9" value="Pgamentos" style="whiteSpace=wrap;html=1;align=center;" vertex="1" parent="Ie0WVEqrF0VkaRGyWmDQ-1">
          <mxGeometry x="665" y="15" width="170" height="80" as="geometry" />
        </mxCell>
        <mxCell id="9vOeOldOIE_bXt0ZhmqE-6" style="edgeStyle=orthogonalEdgeStyle;rounded=0;orthogonalLoop=1;jettySize=auto;html=1;entryX=0.5;entryY=0;entryDx=0;entryDy=0;endArrow=none;startFill=0;" edge="1" parent="Ie0WVEqrF0VkaRGyWmDQ-1" source="Ie0WVEqrF0VkaRGyWmDQ-11" target="Ie0WVEqrF0VkaRGyWmDQ-5">
          <mxGeometry relative="1" as="geometry" />
        </mxCell>
        <mxCell id="Ie0WVEqrF0VkaRGyWmDQ-11" value="possui" style="shape=rhombus;perimeter=rhombusPerimeter;whiteSpace=wrap;html=1;align=center;" vertex="1" parent="Ie0WVEqrF0VkaRGyWmDQ-1">
          <mxGeometry x="365.5" y="330" width="80" height="42.5" as="geometry" />
        </mxCell>
        <mxCell id="9vOeOldOIE_bXt0ZhmqE-2" style="edgeStyle=orthogonalEdgeStyle;rounded=0;orthogonalLoop=1;jettySize=auto;html=1;entryX=0;entryY=0.5;entryDx=0;entryDy=0;endArrow=none;startFill=0;" edge="1" parent="Ie0WVEqrF0VkaRGyWmDQ-1" source="Ie0WVEqrF0VkaRGyWmDQ-13" target="Ie0WVEqrF0VkaRGyWmDQ-9">
          <mxGeometry relative="1" as="geometry" />
        </mxCell>
        <mxCell id="Ie0WVEqrF0VkaRGyWmDQ-13" value="possui" style="shape=rhombus;perimeter=rhombusPerimeter;whiteSpace=wrap;html=1;align=center;" vertex="1" parent="Ie0WVEqrF0VkaRGyWmDQ-1">
          <mxGeometry x="520" y="36.25" width="80" height="37.5" as="geometry" />
        </mxCell>
        <mxCell id="9vOeOldOIE_bXt0ZhmqE-3" style="edgeStyle=orthogonalEdgeStyle;rounded=0;orthogonalLoop=1;jettySize=auto;html=1;entryX=0.5;entryY=1;entryDx=0;entryDy=0;endArrow=none;startFill=0;" edge="1" parent="Ie0WVEqrF0VkaRGyWmDQ-1" source="Ie0WVEqrF0VkaRGyWmDQ-15" target="Ie0WVEqrF0VkaRGyWmDQ-8">
          <mxGeometry relative="1" as="geometry" />
        </mxCell>
        <mxCell id="9vOeOldOIE_bXt0ZhmqE-4" style="edgeStyle=orthogonalEdgeStyle;rounded=0;orthogonalLoop=1;jettySize=auto;html=1;endArrow=none;startFill=0;" edge="1" parent="Ie0WVEqrF0VkaRGyWmDQ-1" source="Ie0WVEqrF0VkaRGyWmDQ-15" target="Ie0WVEqrF0VkaRGyWmDQ-18">
          <mxGeometry relative="1" as="geometry" />
        </mxCell>
        <mxCell id="Ie0WVEqrF0VkaRGyWmDQ-15" value="possui" style="shape=rhombus;perimeter=rhombusPerimeter;whiteSpace=wrap;html=1;align=center;" vertex="1" parent="Ie0WVEqrF0VkaRGyWmDQ-1">
          <mxGeometry x="370" y="118" width="70" height="40" as="geometry" />
        </mxCell>
        <mxCell id="Ie0WVEqrF0VkaRGyWmDQ-16" value="possui" style="shape=rhombus;perimeter=rhombusPerimeter;whiteSpace=wrap;html=1;align=center;" vertex="1" parent="Ie0WVEqrF0VkaRGyWmDQ-1">
          <mxGeometry x="220" y="33.75" width="75" height="42.5" as="geometry" />
        </mxCell>
        <mxCell id="9vOeOldOIE_bXt0ZhmqE-5" style="edgeStyle=orthogonalEdgeStyle;rounded=0;orthogonalLoop=1;jettySize=auto;html=1;endArrow=none;startFill=0;" edge="1" parent="Ie0WVEqrF0VkaRGyWmDQ-1" source="Ie0WVEqrF0VkaRGyWmDQ-18" target="Ie0WVEqrF0VkaRGyWmDQ-11">
          <mxGeometry relative="1" as="geometry" />
        </mxCell>
        <mxCell id="Ie0WVEqrF0VkaRGyWmDQ-18" value="Item do pedido" style="whiteSpace=wrap;html=1;align=center;" vertex="1" parent="Ie0WVEqrF0VkaRGyWmDQ-1">
          <mxGeometry x="320.5" y="197.5" width="170" height="100" as="geometry" />
        </mxCell>
        <mxCell id="jkndE_bDDDoZB61qIuzi-0" value="(1, N)" style="text;html=1;align=center;verticalAlign=middle;resizable=0;points=[];autosize=1;strokeColor=none;fillColor=none;" vertex="1" parent="Ie0WVEqrF0VkaRGyWmDQ-1">
          <mxGeometry x="185" y="18" width="50" height="30" as="geometry" />
        </mxCell>
        <mxCell id="jkndE_bDDDoZB61qIuzi-1" value="(1, 1)" style="text;html=1;align=center;verticalAlign=middle;resizable=0;points=[];autosize=1;strokeColor=none;fillColor=none;" vertex="1" parent="Ie0WVEqrF0VkaRGyWmDQ-1">
          <mxGeometry x="280" y="18" width="50" height="30" as="geometry" />
        </mxCell>
        <mxCell id="jkndE_bDDDoZB61qIuzi-2" value="(1, 1)" style="text;html=1;align=center;verticalAlign=middle;resizable=0;points=[];autosize=1;strokeColor=none;fillColor=none;" vertex="1" parent="Ie0WVEqrF0VkaRGyWmDQ-1">
          <mxGeometry x="481" y="18" width="50" height="30" as="geometry" />
        </mxCell>
        <mxCell id="jkndE_bDDDoZB61qIuzi-3" value="(1, N)" style="text;html=1;align=center;verticalAlign=middle;resizable=0;points=[];autosize=1;strokeColor=none;fillColor=none;" vertex="1" parent="Ie0WVEqrF0VkaRGyWmDQ-1">
          <mxGeometry x="585" y="18" width="50" height="30" as="geometry" />
        </mxCell>
        <mxCell id="jkndE_bDDDoZB61qIuzi-4" value="(1,1)" style="text;html=1;align=center;verticalAlign=middle;resizable=0;points=[];autosize=1;strokeColor=none;fillColor=none;" vertex="1" parent="Ie0WVEqrF0VkaRGyWmDQ-1">
          <mxGeometry x="420" y="95" width="50" height="30" as="geometry" />
        </mxCell>
        <mxCell id="9vOeOldOIE_bXt0ZhmqE-7" value="(1, N)" style="text;html=1;align=center;verticalAlign=middle;resizable=0;points=[];autosize=1;strokeColor=none;fillColor=none;" vertex="1" parent="Ie0WVEqrF0VkaRGyWmDQ-1">
          <mxGeometry x="415" y="158" width="50" height="30" as="geometry" />
        </mxCell>
        <mxCell id="9vOeOldOIE_bXt0ZhmqE-8" value="(1, N)" style="text;html=1;align=center;verticalAlign=middle;resizable=0;points=[];autosize=1;strokeColor=none;fillColor=none;" vertex="1" parent="Ie0WVEqrF0VkaRGyWmDQ-1">
          <mxGeometry x="415" y="308" width="50" height="30" as="geometry" />
        </mxCell>
        <mxCell id="9vOeOldOIE_bXt0ZhmqE-9" value="(1, N)" style="text;html=1;align=center;verticalAlign=middle;resizable=0;points=[];autosize=1;strokeColor=none;fillColor=none;" vertex="1" parent="Ie0WVEqrF0VkaRGyWmDQ-1">
          <mxGeometry x="415" y="378" width="50" height="30" as="geometry" />
        </mxCell>
      </root>
    </mxGraphModel>
  </diagram>
  <diagram name="modo fisico" id="g2F5_rguh97xdaIeabmS">
    <mxGraphModel dx="870" dy="468" grid="1" gridSize="10" guides="1" tooltips="1" connect="1" arrows="1" fold="1" page="1" pageScale="1" pageWidth="827" pageHeight="1169" math="0" shadow="0">
      <root>
        <mxCell id="uIQlPOTaQAm2R-Ba2l15-0" />
        <mxCell id="uIQlPOTaQAm2R-Ba2l15-1" parent="uIQlPOTaQAm2R-Ba2l15-0" />
        <mxCell id="qXBiPnk9skGaxRua_lNI-0" value="Cliente" style="shape=table;startSize=30;container=1;collapsible=1;childLayout=tableLayout;fixedRows=1;rowLines=0;fontStyle=1;align=center;resizeLast=1;html=1;" vertex="1" parent="uIQlPOTaQAm2R-Ba2l15-1">
          <mxGeometry x="20" y="20" width="180" height="200" as="geometry" />
        </mxCell>
        <mxCell id="qXBiPnk9skGaxRua_lNI-1" value="" style="shape=tableRow;horizontal=0;startSize=0;swimlaneHead=0;swimlaneBody=0;fillColor=none;collapsible=0;dropTarget=0;points=[[0,0.5],[1,0.5]];portConstraint=eastwest;top=0;left=0;right=0;bottom=1;" vertex="1" parent="qXBiPnk9skGaxRua_lNI-0">
          <mxGeometry y="30" width="180" height="20" as="geometry" />
        </mxCell>
        <mxCell id="qXBiPnk9skGaxRua_lNI-2" value="PK" style="shape=partialRectangle;connectable=0;fillColor=none;top=0;left=0;bottom=0;right=0;fontStyle=1;overflow=hidden;whiteSpace=wrap;html=1;" vertex="1" parent="qXBiPnk9skGaxRua_lNI-1">
          <mxGeometry width="30" height="20" as="geometry">
            <mxRectangle width="30" height="20" as="alternateBounds" />
          </mxGeometry>
        </mxCell>
        <mxCell id="qXBiPnk9skGaxRua_lNI-3" value="idCliente int" style="shape=partialRectangle;connectable=0;fillColor=none;top=0;left=0;bottom=0;right=0;align=left;spacingLeft=6;fontStyle=5;overflow=hidden;whiteSpace=wrap;html=1;" vertex="1" parent="qXBiPnk9skGaxRua_lNI-1">
          <mxGeometry x="30" width="150" height="20" as="geometry">
            <mxRectangle width="150" height="20" as="alternateBounds" />
          </mxGeometry>
        </mxCell>
        <mxCell id="qXBiPnk9skGaxRua_lNI-7" value="" style="shape=tableRow;horizontal=0;startSize=0;swimlaneHead=0;swimlaneBody=0;fillColor=none;collapsible=0;dropTarget=0;points=[[0,0.5],[1,0.5]];portConstraint=eastwest;top=0;left=0;right=0;bottom=0;" vertex="1" parent="qXBiPnk9skGaxRua_lNI-0">
          <mxGeometry y="50" width="180" height="30" as="geometry" />
        </mxCell>
        <mxCell id="qXBiPnk9skGaxRua_lNI-8" value="" style="shape=partialRectangle;connectable=0;fillColor=none;top=0;left=0;bottom=0;right=0;editable=1;overflow=hidden;whiteSpace=wrap;html=1;" vertex="1" parent="qXBiPnk9skGaxRua_lNI-7">
          <mxGeometry width="30" height="30" as="geometry">
            <mxRectangle width="30" height="30" as="alternateBounds" />
          </mxGeometry>
        </mxCell>
        <mxCell id="qXBiPnk9skGaxRua_lNI-9" value="Nome VARCHAR(100)" style="shape=partialRectangle;connectable=0;fillColor=none;top=0;left=0;bottom=0;right=0;align=left;spacingLeft=6;overflow=hidden;whiteSpace=wrap;html=1;" vertex="1" parent="qXBiPnk9skGaxRua_lNI-7">
          <mxGeometry x="30" width="150" height="30" as="geometry">
            <mxRectangle width="150" height="30" as="alternateBounds" />
          </mxGeometry>
        </mxCell>
        <mxCell id="qXBiPnk9skGaxRua_lNI-10" value="" style="shape=tableRow;horizontal=0;startSize=0;swimlaneHead=0;swimlaneBody=0;fillColor=none;collapsible=0;dropTarget=0;points=[[0,0.5],[1,0.5]];portConstraint=eastwest;top=0;left=0;right=0;bottom=0;" vertex="1" parent="qXBiPnk9skGaxRua_lNI-0">
          <mxGeometry y="80" width="180" height="30" as="geometry" />
        </mxCell>
        <mxCell id="qXBiPnk9skGaxRua_lNI-11" value="" style="shape=partialRectangle;connectable=0;fillColor=none;top=0;left=0;bottom=0;right=0;editable=1;overflow=hidden;whiteSpace=wrap;html=1;" vertex="1" parent="qXBiPnk9skGaxRua_lNI-10">
          <mxGeometry width="30" height="30" as="geometry">
            <mxRectangle width="30" height="30" as="alternateBounds" />
          </mxGeometry>
        </mxCell>
        <mxCell id="qXBiPnk9skGaxRua_lNI-12" value="E-mail VARCHAR(100)" style="shape=partialRectangle;connectable=0;fillColor=none;top=0;left=0;bottom=0;right=0;align=left;spacingLeft=6;overflow=hidden;whiteSpace=wrap;html=1;" vertex="1" parent="qXBiPnk9skGaxRua_lNI-10">
          <mxGeometry x="30" width="150" height="30" as="geometry">
            <mxRectangle width="150" height="30" as="alternateBounds" />
          </mxGeometry>
        </mxCell>
        <mxCell id="5ffhaKkge2kroIxbHq1X-52" value="" style="shape=tableRow;horizontal=0;startSize=0;swimlaneHead=0;swimlaneBody=0;fillColor=none;collapsible=0;dropTarget=0;points=[[0,0.5],[1,0.5]];portConstraint=eastwest;top=0;left=0;right=0;bottom=0;" vertex="1" parent="qXBiPnk9skGaxRua_lNI-0">
          <mxGeometry y="110" width="180" height="30" as="geometry" />
        </mxCell>
        <mxCell id="5ffhaKkge2kroIxbHq1X-53" value="" style="shape=partialRectangle;connectable=0;fillColor=none;top=0;left=0;bottom=0;right=0;editable=1;overflow=hidden;whiteSpace=wrap;html=1;" vertex="1" parent="5ffhaKkge2kroIxbHq1X-52">
          <mxGeometry width="30" height="30" as="geometry">
            <mxRectangle width="30" height="30" as="alternateBounds" />
          </mxGeometry>
        </mxCell>
        <mxCell id="5ffhaKkge2kroIxbHq1X-54" value="Telefone VARCHAR(20)" style="shape=partialRectangle;connectable=0;fillColor=none;top=0;left=0;bottom=0;right=0;align=left;spacingLeft=6;overflow=hidden;whiteSpace=wrap;html=1;" vertex="1" parent="5ffhaKkge2kroIxbHq1X-52">
          <mxGeometry x="30" width="150" height="30" as="geometry">
            <mxRectangle width="150" height="30" as="alternateBounds" />
          </mxGeometry>
        </mxCell>
        <mxCell id="5ffhaKkge2kroIxbHq1X-55" value="" style="shape=tableRow;horizontal=0;startSize=0;swimlaneHead=0;swimlaneBody=0;fillColor=none;collapsible=0;dropTarget=0;points=[[0,0.5],[1,0.5]];portConstraint=eastwest;top=0;left=0;right=0;bottom=0;" vertex="1" parent="qXBiPnk9skGaxRua_lNI-0">
          <mxGeometry y="140" width="180" height="30" as="geometry" />
        </mxCell>
        <mxCell id="5ffhaKkge2kroIxbHq1X-56" value="" style="shape=partialRectangle;connectable=0;fillColor=none;top=0;left=0;bottom=0;right=0;editable=1;overflow=hidden;whiteSpace=wrap;html=1;" vertex="1" parent="5ffhaKkge2kroIxbHq1X-55">
          <mxGeometry width="30" height="30" as="geometry">
            <mxRectangle width="30" height="30" as="alternateBounds" />
          </mxGeometry>
        </mxCell>
        <mxCell id="5ffhaKkge2kroIxbHq1X-57" value="EnderecoVARCHAR(255)" style="shape=partialRectangle;connectable=0;fillColor=none;top=0;left=0;bottom=0;right=0;align=left;spacingLeft=6;overflow=hidden;whiteSpace=wrap;html=1;" vertex="1" parent="5ffhaKkge2kroIxbHq1X-55">
          <mxGeometry x="30" width="150" height="30" as="geometry">
            <mxRectangle width="150" height="30" as="alternateBounds" />
          </mxGeometry>
        </mxCell>
        <mxCell id="5ffhaKkge2kroIxbHq1X-58" value="" style="shape=tableRow;horizontal=0;startSize=0;swimlaneHead=0;swimlaneBody=0;fillColor=none;collapsible=0;dropTarget=0;points=[[0,0.5],[1,0.5]];portConstraint=eastwest;top=0;left=0;right=0;bottom=0;" vertex="1" parent="qXBiPnk9skGaxRua_lNI-0">
          <mxGeometry y="170" width="180" height="30" as="geometry" />
        </mxCell>
        <mxCell id="5ffhaKkge2kroIxbHq1X-59" value="" style="shape=partialRectangle;connectable=0;fillColor=none;top=0;left=0;bottom=0;right=0;editable=1;overflow=hidden;whiteSpace=wrap;html=1;" vertex="1" parent="5ffhaKkge2kroIxbHq1X-58">
          <mxGeometry width="30" height="30" as="geometry">
            <mxRectangle width="30" height="30" as="alternateBounds" />
          </mxGeometry>
        </mxCell>
        <mxCell id="5ffhaKkge2kroIxbHq1X-60" value="Datacadastro DATE" style="shape=partialRectangle;connectable=0;fillColor=none;top=0;left=0;bottom=0;right=0;align=left;spacingLeft=6;overflow=hidden;whiteSpace=wrap;html=1;" vertex="1" parent="5ffhaKkge2kroIxbHq1X-58">
          <mxGeometry x="30" width="150" height="30" as="geometry">
            <mxRectangle width="150" height="30" as="alternateBounds" />
          </mxGeometry>
        </mxCell>
        <mxCell id="5ffhaKkge2kroIxbHq1X-0" value="Produtos" style="shape=table;startSize=30;container=1;collapsible=1;childLayout=tableLayout;fixedRows=1;rowLines=0;fontStyle=1;align=center;resizeLast=1;html=1;" vertex="1" parent="uIQlPOTaQAm2R-Ba2l15-1">
          <mxGeometry x="265" y="480" width="180" height="240" as="geometry" />
        </mxCell>
        <mxCell id="5ffhaKkge2kroIxbHq1X-1" value="" style="shape=tableRow;horizontal=0;startSize=0;swimlaneHead=0;swimlaneBody=0;fillColor=none;collapsible=0;dropTarget=0;points=[[0,0.5],[1,0.5]];portConstraint=eastwest;top=0;left=0;right=0;bottom=1;" vertex="1" parent="5ffhaKkge2kroIxbHq1X-0">
          <mxGeometry y="30" width="180" height="30" as="geometry" />
        </mxCell>
        <mxCell id="5ffhaKkge2kroIxbHq1X-2" value="PK" style="shape=partialRectangle;connectable=0;fillColor=none;top=0;left=0;bottom=0;right=0;fontStyle=1;overflow=hidden;whiteSpace=wrap;html=1;" vertex="1" parent="5ffhaKkge2kroIxbHq1X-1">
          <mxGeometry width="30" height="30" as="geometry">
            <mxRectangle width="30" height="30" as="alternateBounds" />
          </mxGeometry>
        </mxCell>
        <mxCell id="5ffhaKkge2kroIxbHq1X-3" value="idprodutos int" style="shape=partialRectangle;connectable=0;fillColor=none;top=0;left=0;bottom=0;right=0;align=left;spacingLeft=6;fontStyle=5;overflow=hidden;whiteSpace=wrap;html=1;" vertex="1" parent="5ffhaKkge2kroIxbHq1X-1">
          <mxGeometry x="30" width="150" height="30" as="geometry">
            <mxRectangle width="150" height="30" as="alternateBounds" />
          </mxGeometry>
        </mxCell>
        <mxCell id="5ffhaKkge2kroIxbHq1X-7" value="" style="shape=tableRow;horizontal=0;startSize=0;swimlaneHead=0;swimlaneBody=0;fillColor=none;collapsible=0;dropTarget=0;points=[[0,0.5],[1,0.5]];portConstraint=eastwest;top=0;left=0;right=0;bottom=0;" vertex="1" parent="5ffhaKkge2kroIxbHq1X-0">
          <mxGeometry y="60" width="180" height="30" as="geometry" />
        </mxCell>
        <mxCell id="5ffhaKkge2kroIxbHq1X-8" value="" style="shape=partialRectangle;connectable=0;fillColor=none;top=0;left=0;bottom=0;right=0;editable=1;overflow=hidden;whiteSpace=wrap;html=1;" vertex="1" parent="5ffhaKkge2kroIxbHq1X-7">
          <mxGeometry width="30" height="30" as="geometry">
            <mxRectangle width="30" height="30" as="alternateBounds" />
          </mxGeometry>
        </mxCell>
        <mxCell id="5ffhaKkge2kroIxbHq1X-9" value="Nome VARCHAR(150)" style="shape=partialRectangle;connectable=0;fillColor=none;top=0;left=0;bottom=0;right=0;align=left;spacingLeft=6;overflow=hidden;whiteSpace=wrap;html=1;" vertex="1" parent="5ffhaKkge2kroIxbHq1X-7">
          <mxGeometry x="30" width="150" height="30" as="geometry">
            <mxRectangle width="150" height="30" as="alternateBounds" />
          </mxGeometry>
        </mxCell>
        <mxCell id="5ffhaKkge2kroIxbHq1X-10" value="" style="shape=tableRow;horizontal=0;startSize=0;swimlaneHead=0;swimlaneBody=0;fillColor=none;collapsible=0;dropTarget=0;points=[[0,0.5],[1,0.5]];portConstraint=eastwest;top=0;left=0;right=0;bottom=0;" vertex="1" parent="5ffhaKkge2kroIxbHq1X-0">
          <mxGeometry y="90" width="180" height="30" as="geometry" />
        </mxCell>
        <mxCell id="5ffhaKkge2kroIxbHq1X-11" value="" style="shape=partialRectangle;connectable=0;fillColor=none;top=0;left=0;bottom=0;right=0;editable=1;overflow=hidden;whiteSpace=wrap;html=1;" vertex="1" parent="5ffhaKkge2kroIxbHq1X-10">
          <mxGeometry width="30" height="30" as="geometry">
            <mxRectangle width="30" height="30" as="alternateBounds" />
          </mxGeometry>
        </mxCell>
        <mxCell id="5ffhaKkge2kroIxbHq1X-12" value="DescricaoVARCHAR(150)" style="shape=partialRectangle;connectable=0;fillColor=none;top=0;left=0;bottom=0;right=0;align=left;spacingLeft=6;overflow=hidden;whiteSpace=wrap;html=1;" vertex="1" parent="5ffhaKkge2kroIxbHq1X-10">
          <mxGeometry x="30" width="150" height="30" as="geometry">
            <mxRectangle width="150" height="30" as="alternateBounds" />
          </mxGeometry>
        </mxCell>
        <mxCell id="5ffhaKkge2kroIxbHq1X-61" value="" style="shape=tableRow;horizontal=0;startSize=0;swimlaneHead=0;swimlaneBody=0;fillColor=none;collapsible=0;dropTarget=0;points=[[0,0.5],[1,0.5]];portConstraint=eastwest;top=0;left=0;right=0;bottom=0;" vertex="1" parent="5ffhaKkge2kroIxbHq1X-0">
          <mxGeometry y="120" width="180" height="30" as="geometry" />
        </mxCell>
        <mxCell id="5ffhaKkge2kroIxbHq1X-62" value="" style="shape=partialRectangle;connectable=0;fillColor=none;top=0;left=0;bottom=0;right=0;editable=1;overflow=hidden;whiteSpace=wrap;html=1;" vertex="1" parent="5ffhaKkge2kroIxbHq1X-61">
          <mxGeometry width="30" height="30" as="geometry">
            <mxRectangle width="30" height="30" as="alternateBounds" />
          </mxGeometry>
        </mxCell>
        <mxCell id="5ffhaKkge2kroIxbHq1X-63" value="Preco DEcimal(18, 6)" style="shape=partialRectangle;connectable=0;fillColor=none;top=0;left=0;bottom=0;right=0;align=left;spacingLeft=6;overflow=hidden;whiteSpace=wrap;html=1;" vertex="1" parent="5ffhaKkge2kroIxbHq1X-61">
          <mxGeometry x="30" width="150" height="30" as="geometry">
            <mxRectangle width="150" height="30" as="alternateBounds" />
          </mxGeometry>
        </mxCell>
        <mxCell id="5ffhaKkge2kroIxbHq1X-64" value="" style="shape=tableRow;horizontal=0;startSize=0;swimlaneHead=0;swimlaneBody=0;fillColor=none;collapsible=0;dropTarget=0;points=[[0,0.5],[1,0.5]];portConstraint=eastwest;top=0;left=0;right=0;bottom=0;" vertex="1" parent="5ffhaKkge2kroIxbHq1X-0">
          <mxGeometry y="150" width="180" height="30" as="geometry" />
        </mxCell>
        <mxCell id="5ffhaKkge2kroIxbHq1X-65" value="" style="shape=partialRectangle;connectable=0;fillColor=none;top=0;left=0;bottom=0;right=0;editable=1;overflow=hidden;whiteSpace=wrap;html=1;" vertex="1" parent="5ffhaKkge2kroIxbHq1X-64">
          <mxGeometry width="30" height="30" as="geometry">
            <mxRectangle width="30" height="30" as="alternateBounds" />
          </mxGeometry>
        </mxCell>
        <mxCell id="5ffhaKkge2kroIxbHq1X-66" value="Estoquedisponivel INT" style="shape=partialRectangle;connectable=0;fillColor=none;top=0;left=0;bottom=0;right=0;align=left;spacingLeft=6;overflow=hidden;whiteSpace=wrap;html=1;" vertex="1" parent="5ffhaKkge2kroIxbHq1X-64">
          <mxGeometry x="30" width="150" height="30" as="geometry">
            <mxRectangle width="150" height="30" as="alternateBounds" />
          </mxGeometry>
        </mxCell>
        <mxCell id="5ffhaKkge2kroIxbHq1X-67" value="" style="shape=tableRow;horizontal=0;startSize=0;swimlaneHead=0;swimlaneBody=0;fillColor=none;collapsible=0;dropTarget=0;points=[[0,0.5],[1,0.5]];portConstraint=eastwest;top=0;left=0;right=0;bottom=0;" vertex="1" parent="5ffhaKkge2kroIxbHq1X-0">
          <mxGeometry y="180" width="180" height="30" as="geometry" />
        </mxCell>
        <mxCell id="5ffhaKkge2kroIxbHq1X-68" value="" style="shape=partialRectangle;connectable=0;fillColor=none;top=0;left=0;bottom=0;right=0;editable=1;overflow=hidden;whiteSpace=wrap;html=1;" vertex="1" parent="5ffhaKkge2kroIxbHq1X-67">
          <mxGeometry width="30" height="30" as="geometry">
            <mxRectangle width="30" height="30" as="alternateBounds" />
          </mxGeometry>
        </mxCell>
        <mxCell id="5ffhaKkge2kroIxbHq1X-69" value="Categoria VARCHAR(100)" style="shape=partialRectangle;connectable=0;fillColor=none;top=0;left=0;bottom=0;right=0;align=left;spacingLeft=6;overflow=hidden;whiteSpace=wrap;html=1;" vertex="1" parent="5ffhaKkge2kroIxbHq1X-67">
          <mxGeometry x="30" width="150" height="30" as="geometry">
            <mxRectangle width="150" height="30" as="alternateBounds" />
          </mxGeometry>
        </mxCell>
        <mxCell id="5ffhaKkge2kroIxbHq1X-70" value="" style="shape=tableRow;horizontal=0;startSize=0;swimlaneHead=0;swimlaneBody=0;fillColor=none;collapsible=0;dropTarget=0;points=[[0,0.5],[1,0.5]];portConstraint=eastwest;top=0;left=0;right=0;bottom=0;" vertex="1" parent="5ffhaKkge2kroIxbHq1X-0">
          <mxGeometry y="210" width="180" height="30" as="geometry" />
        </mxCell>
        <mxCell id="5ffhaKkge2kroIxbHq1X-71" value="" style="shape=partialRectangle;connectable=0;fillColor=none;top=0;left=0;bottom=0;right=0;editable=1;overflow=hidden;whiteSpace=wrap;html=1;" vertex="1" parent="5ffhaKkge2kroIxbHq1X-70">
          <mxGeometry width="30" height="30" as="geometry">
            <mxRectangle width="30" height="30" as="alternateBounds" />
          </mxGeometry>
        </mxCell>
        <mxCell id="5ffhaKkge2kroIxbHq1X-72" value="Imagem VARCHAR(255)" style="shape=partialRectangle;connectable=0;fillColor=none;top=0;left=0;bottom=0;right=0;align=left;spacingLeft=6;overflow=hidden;whiteSpace=wrap;html=1;" vertex="1" parent="5ffhaKkge2kroIxbHq1X-70">
          <mxGeometry x="30" width="150" height="30" as="geometry">
            <mxRectangle width="150" height="30" as="alternateBounds" />
          </mxGeometry>
        </mxCell>
        <mxCell id="5ffhaKkge2kroIxbHq1X-13" value="Item de pedido" style="shape=table;startSize=30;container=1;collapsible=1;childLayout=tableLayout;fixedRows=1;rowLines=0;fontStyle=1;align=center;resizeLast=1;html=1;" vertex="1" parent="uIQlPOTaQAm2R-Ba2l15-1">
          <mxGeometry x="255" y="270" width="190" height="150" as="geometry" />
        </mxCell>
        <mxCell id="5ffhaKkge2kroIxbHq1X-14" value="" style="shape=tableRow;horizontal=0;startSize=0;swimlaneHead=0;swimlaneBody=0;fillColor=none;collapsible=0;dropTarget=0;points=[[0,0.5],[1,0.5]];portConstraint=eastwest;top=0;left=0;right=0;bottom=1;" vertex="1" parent="5ffhaKkge2kroIxbHq1X-13">
          <mxGeometry y="30" width="190" height="30" as="geometry" />
        </mxCell>
        <mxCell id="5ffhaKkge2kroIxbHq1X-15" value="PK" style="shape=partialRectangle;connectable=0;fillColor=none;top=0;left=0;bottom=0;right=0;fontStyle=1;overflow=hidden;whiteSpace=wrap;html=1;" vertex="1" parent="5ffhaKkge2kroIxbHq1X-14">
          <mxGeometry width="30" height="30" as="geometry">
            <mxRectangle width="30" height="30" as="alternateBounds" />
          </mxGeometry>
        </mxCell>
        <mxCell id="5ffhaKkge2kroIxbHq1X-16" value="id Itempedidos" style="shape=partialRectangle;connectable=0;fillColor=none;top=0;left=0;bottom=0;right=0;align=left;spacingLeft=6;fontStyle=5;overflow=hidden;whiteSpace=wrap;html=1;" vertex="1" parent="5ffhaKkge2kroIxbHq1X-14">
          <mxGeometry x="30" width="160" height="30" as="geometry">
            <mxRectangle width="160" height="30" as="alternateBounds" />
          </mxGeometry>
        </mxCell>
        <mxCell id="5ffhaKkge2kroIxbHq1X-17" value="" style="shape=tableRow;horizontal=0;startSize=0;swimlaneHead=0;swimlaneBody=0;fillColor=none;collapsible=0;dropTarget=0;points=[[0,0.5],[1,0.5]];portConstraint=eastwest;top=0;left=0;right=0;bottom=0;" vertex="1" parent="5ffhaKkge2kroIxbHq1X-13">
          <mxGeometry y="60" width="190" height="30" as="geometry" />
        </mxCell>
        <mxCell id="5ffhaKkge2kroIxbHq1X-18" value="FK" style="shape=partialRectangle;connectable=0;fillColor=none;top=0;left=0;bottom=0;right=0;editable=1;overflow=hidden;whiteSpace=wrap;html=1;" vertex="1" parent="5ffhaKkge2kroIxbHq1X-17">
          <mxGeometry width="30" height="30" as="geometry">
            <mxRectangle width="30" height="30" as="alternateBounds" />
          </mxGeometry>
        </mxCell>
        <mxCell id="5ffhaKkge2kroIxbHq1X-19" value="IDpedidos INT" style="shape=partialRectangle;connectable=0;fillColor=none;top=0;left=0;bottom=0;right=0;align=left;spacingLeft=6;overflow=hidden;whiteSpace=wrap;html=1;" vertex="1" parent="5ffhaKkge2kroIxbHq1X-17">
          <mxGeometry x="30" width="160" height="30" as="geometry">
            <mxRectangle width="160" height="30" as="alternateBounds" />
          </mxGeometry>
        </mxCell>
        <mxCell id="5ffhaKkge2kroIxbHq1X-20" value="" style="shape=tableRow;horizontal=0;startSize=0;swimlaneHead=0;swimlaneBody=0;fillColor=none;collapsible=0;dropTarget=0;points=[[0,0.5],[1,0.5]];portConstraint=eastwest;top=0;left=0;right=0;bottom=0;" vertex="1" parent="5ffhaKkge2kroIxbHq1X-13">
          <mxGeometry y="90" width="190" height="30" as="geometry" />
        </mxCell>
        <mxCell id="5ffhaKkge2kroIxbHq1X-21" value="FK" style="shape=partialRectangle;connectable=0;fillColor=none;top=0;left=0;bottom=0;right=0;editable=1;overflow=hidden;whiteSpace=wrap;html=1;" vertex="1" parent="5ffhaKkge2kroIxbHq1X-20">
          <mxGeometry width="30" height="30" as="geometry">
            <mxRectangle width="30" height="30" as="alternateBounds" />
          </mxGeometry>
        </mxCell>
        <mxCell id="5ffhaKkge2kroIxbHq1X-22" value="IDprodutos INT" style="shape=partialRectangle;connectable=0;fillColor=none;top=0;left=0;bottom=0;right=0;align=left;spacingLeft=6;overflow=hidden;whiteSpace=wrap;html=1;" vertex="1" parent="5ffhaKkge2kroIxbHq1X-20">
          <mxGeometry x="30" width="160" height="30" as="geometry">
            <mxRectangle width="160" height="30" as="alternateBounds" />
          </mxGeometry>
        </mxCell>
        <mxCell id="5ffhaKkge2kroIxbHq1X-23" value="" style="shape=tableRow;horizontal=0;startSize=0;swimlaneHead=0;swimlaneBody=0;fillColor=none;collapsible=0;dropTarget=0;points=[[0,0.5],[1,0.5]];portConstraint=eastwest;top=0;left=0;right=0;bottom=0;" vertex="1" parent="5ffhaKkge2kroIxbHq1X-13">
          <mxGeometry y="120" width="190" height="30" as="geometry" />
        </mxCell>
        <mxCell id="5ffhaKkge2kroIxbHq1X-24" value="" style="shape=partialRectangle;connectable=0;fillColor=none;top=0;left=0;bottom=0;right=0;editable=1;overflow=hidden;whiteSpace=wrap;html=1;" vertex="1" parent="5ffhaKkge2kroIxbHq1X-23">
          <mxGeometry width="30" height="30" as="geometry">
            <mxRectangle width="30" height="30" as="alternateBounds" />
          </mxGeometry>
        </mxCell>
        <mxCell id="5ffhaKkge2kroIxbHq1X-25" value="Quantidade INT" style="shape=partialRectangle;connectable=0;fillColor=none;top=0;left=0;bottom=0;right=0;align=left;spacingLeft=6;overflow=hidden;whiteSpace=wrap;html=1;" vertex="1" parent="5ffhaKkge2kroIxbHq1X-23">
          <mxGeometry x="30" width="160" height="30" as="geometry">
            <mxRectangle width="160" height="30" as="alternateBounds" />
          </mxGeometry>
        </mxCell>
        <mxCell id="5ffhaKkge2kroIxbHq1X-26" value="Pedidos" style="shape=table;startSize=30;container=1;collapsible=1;childLayout=tableLayout;fixedRows=1;rowLines=0;fontStyle=1;align=center;resizeLast=1;html=1;" vertex="1" parent="uIQlPOTaQAm2R-Ba2l15-1">
          <mxGeometry x="260" y="40" width="180" height="180" as="geometry" />
        </mxCell>
        <mxCell id="5ffhaKkge2kroIxbHq1X-27" value="" style="shape=tableRow;horizontal=0;startSize=0;swimlaneHead=0;swimlaneBody=0;fillColor=none;collapsible=0;dropTarget=0;points=[[0,0.5],[1,0.5]];portConstraint=eastwest;top=0;left=0;right=0;bottom=1;" vertex="1" parent="5ffhaKkge2kroIxbHq1X-26">
          <mxGeometry y="30" width="180" height="30" as="geometry" />
        </mxCell>
        <mxCell id="5ffhaKkge2kroIxbHq1X-28" value="PK" style="shape=partialRectangle;connectable=0;fillColor=none;top=0;left=0;bottom=0;right=0;fontStyle=1;overflow=hidden;whiteSpace=wrap;html=1;" vertex="1" parent="5ffhaKkge2kroIxbHq1X-27">
          <mxGeometry width="30" height="30" as="geometry">
            <mxRectangle width="30" height="30" as="alternateBounds" />
          </mxGeometry>
        </mxCell>
        <mxCell id="5ffhaKkge2kroIxbHq1X-29" value="idPedidos int" style="shape=partialRectangle;connectable=0;fillColor=none;top=0;left=0;bottom=0;right=0;align=left;spacingLeft=6;fontStyle=5;overflow=hidden;whiteSpace=wrap;html=1;" vertex="1" parent="5ffhaKkge2kroIxbHq1X-27">
          <mxGeometry x="30" width="150" height="30" as="geometry">
            <mxRectangle width="150" height="30" as="alternateBounds" />
          </mxGeometry>
        </mxCell>
        <mxCell id="5ffhaKkge2kroIxbHq1X-33" value="" style="shape=tableRow;horizontal=0;startSize=0;swimlaneHead=0;swimlaneBody=0;fillColor=none;collapsible=0;dropTarget=0;points=[[0,0.5],[1,0.5]];portConstraint=eastwest;top=0;left=0;right=0;bottom=0;" vertex="1" parent="5ffhaKkge2kroIxbHq1X-26">
          <mxGeometry y="60" width="180" height="30" as="geometry" />
        </mxCell>
        <mxCell id="5ffhaKkge2kroIxbHq1X-34" value="FK" style="shape=partialRectangle;connectable=0;fillColor=none;top=0;left=0;bottom=0;right=0;editable=1;overflow=hidden;whiteSpace=wrap;html=1;" vertex="1" parent="5ffhaKkge2kroIxbHq1X-33">
          <mxGeometry width="30" height="30" as="geometry">
            <mxRectangle width="30" height="30" as="alternateBounds" />
          </mxGeometry>
        </mxCell>
        <mxCell id="5ffhaKkge2kroIxbHq1X-35" value="IDClientes INT" style="shape=partialRectangle;connectable=0;fillColor=none;top=0;left=0;bottom=0;right=0;align=left;spacingLeft=6;overflow=hidden;whiteSpace=wrap;html=1;" vertex="1" parent="5ffhaKkge2kroIxbHq1X-33">
          <mxGeometry x="30" width="150" height="30" as="geometry">
            <mxRectangle width="150" height="30" as="alternateBounds" />
          </mxGeometry>
        </mxCell>
        <mxCell id="5ffhaKkge2kroIxbHq1X-36" value="" style="shape=tableRow;horizontal=0;startSize=0;swimlaneHead=0;swimlaneBody=0;fillColor=none;collapsible=0;dropTarget=0;points=[[0,0.5],[1,0.5]];portConstraint=eastwest;top=0;left=0;right=0;bottom=0;" vertex="1" parent="5ffhaKkge2kroIxbHq1X-26">
          <mxGeometry y="90" width="180" height="30" as="geometry" />
        </mxCell>
        <mxCell id="5ffhaKkge2kroIxbHq1X-37" value="" style="shape=partialRectangle;connectable=0;fillColor=none;top=0;left=0;bottom=0;right=0;editable=1;overflow=hidden;whiteSpace=wrap;html=1;" vertex="1" parent="5ffhaKkge2kroIxbHq1X-36">
          <mxGeometry width="30" height="30" as="geometry">
            <mxRectangle width="30" height="30" as="alternateBounds" />
          </mxGeometry>
        </mxCell>
        <mxCell id="5ffhaKkge2kroIxbHq1X-38" value="Dataspedido DATE" style="shape=partialRectangle;connectable=0;fillColor=none;top=0;left=0;bottom=0;right=0;align=left;spacingLeft=6;overflow=hidden;whiteSpace=wrap;html=1;" vertex="1" parent="5ffhaKkge2kroIxbHq1X-36">
          <mxGeometry x="30" width="150" height="30" as="geometry">
            <mxRectangle width="150" height="30" as="alternateBounds" />
          </mxGeometry>
        </mxCell>
        <mxCell id="1ARL4fC9_Qn_OWLWRrNi-0" value="" style="shape=tableRow;horizontal=0;startSize=0;swimlaneHead=0;swimlaneBody=0;fillColor=none;collapsible=0;dropTarget=0;points=[[0,0.5],[1,0.5]];portConstraint=eastwest;top=0;left=0;right=0;bottom=0;" vertex="1" parent="5ffhaKkge2kroIxbHq1X-26">
          <mxGeometry y="120" width="180" height="30" as="geometry" />
        </mxCell>
        <mxCell id="1ARL4fC9_Qn_OWLWRrNi-1" value="" style="shape=partialRectangle;connectable=0;fillColor=none;top=0;left=0;bottom=0;right=0;editable=1;overflow=hidden;whiteSpace=wrap;html=1;" vertex="1" parent="1ARL4fC9_Qn_OWLWRrNi-0">
          <mxGeometry width="30" height="30" as="geometry">
            <mxRectangle width="30" height="30" as="alternateBounds" />
          </mxGeometry>
        </mxCell>
        <mxCell id="1ARL4fC9_Qn_OWLWRrNi-2" value="StatuspedidoVARCHAR(50)" style="shape=partialRectangle;connectable=0;fillColor=none;top=0;left=0;bottom=0;right=0;align=left;spacingLeft=6;overflow=hidden;whiteSpace=wrap;html=1;" vertex="1" parent="1ARL4fC9_Qn_OWLWRrNi-0">
          <mxGeometry x="30" width="150" height="30" as="geometry">
            <mxRectangle width="150" height="30" as="alternateBounds" />
          </mxGeometry>
        </mxCell>
        <mxCell id="1ARL4fC9_Qn_OWLWRrNi-3" value="" style="shape=tableRow;horizontal=0;startSize=0;swimlaneHead=0;swimlaneBody=0;fillColor=none;collapsible=0;dropTarget=0;points=[[0,0.5],[1,0.5]];portConstraint=eastwest;top=0;left=0;right=0;bottom=0;" vertex="1" parent="5ffhaKkge2kroIxbHq1X-26">
          <mxGeometry y="150" width="180" height="30" as="geometry" />
        </mxCell>
        <mxCell id="1ARL4fC9_Qn_OWLWRrNi-4" value="" style="shape=partialRectangle;connectable=0;fillColor=none;top=0;left=0;bottom=0;right=0;editable=1;overflow=hidden;whiteSpace=wrap;html=1;" vertex="1" parent="1ARL4fC9_Qn_OWLWRrNi-3">
          <mxGeometry width="30" height="30" as="geometry">
            <mxRectangle width="30" height="30" as="alternateBounds" />
          </mxGeometry>
        </mxCell>
        <mxCell id="1ARL4fC9_Qn_OWLWRrNi-5" value="Valortotal Decimal(18, 6)" style="shape=partialRectangle;connectable=0;fillColor=none;top=0;left=0;bottom=0;right=0;align=left;spacingLeft=6;overflow=hidden;whiteSpace=wrap;html=1;" vertex="1" parent="1ARL4fC9_Qn_OWLWRrNi-3">
          <mxGeometry x="30" width="150" height="30" as="geometry">
            <mxRectangle width="150" height="30" as="alternateBounds" />
          </mxGeometry>
        </mxCell>
        <mxCell id="5ffhaKkge2kroIxbHq1X-39" value="Pagamento" style="shape=table;startSize=30;container=1;collapsible=1;childLayout=tableLayout;fixedRows=1;rowLines=0;fontStyle=1;align=center;resizeLast=1;html=1;" vertex="1" parent="uIQlPOTaQAm2R-Ba2l15-1">
          <mxGeometry x="520" y="20" width="180" height="180" as="geometry" />
        </mxCell>
        <mxCell id="5ffhaKkge2kroIxbHq1X-40" value="" style="shape=tableRow;horizontal=0;startSize=0;swimlaneHead=0;swimlaneBody=0;fillColor=none;collapsible=0;dropTarget=0;points=[[0,0.5],[1,0.5]];portConstraint=eastwest;top=0;left=0;right=0;bottom=1;" vertex="1" parent="5ffhaKkge2kroIxbHq1X-39">
          <mxGeometry y="30" width="180" height="30" as="geometry" />
        </mxCell>
        <mxCell id="5ffhaKkge2kroIxbHq1X-41" value="PK" style="shape=partialRectangle;connectable=0;fillColor=none;top=0;left=0;bottom=0;right=0;fontStyle=1;overflow=hidden;whiteSpace=wrap;html=1;" vertex="1" parent="5ffhaKkge2kroIxbHq1X-40">
          <mxGeometry width="30" height="30" as="geometry">
            <mxRectangle width="30" height="30" as="alternateBounds" />
          </mxGeometry>
        </mxCell>
        <mxCell id="5ffhaKkge2kroIxbHq1X-42" value="idPagamento int" style="shape=partialRectangle;connectable=0;fillColor=none;top=0;left=0;bottom=0;right=0;align=left;spacingLeft=6;fontStyle=5;overflow=hidden;whiteSpace=wrap;html=1;" vertex="1" parent="5ffhaKkge2kroIxbHq1X-40">
          <mxGeometry x="30" width="150" height="30" as="geometry">
            <mxRectangle width="150" height="30" as="alternateBounds" />
          </mxGeometry>
        </mxCell>
        <mxCell id="5ffhaKkge2kroIxbHq1X-43" value="" style="shape=tableRow;horizontal=0;startSize=0;swimlaneHead=0;swimlaneBody=0;fillColor=none;collapsible=0;dropTarget=0;points=[[0,0.5],[1,0.5]];portConstraint=eastwest;top=0;left=0;right=0;bottom=0;" vertex="1" parent="5ffhaKkge2kroIxbHq1X-39">
          <mxGeometry y="60" width="180" height="30" as="geometry" />
        </mxCell>
        <mxCell id="5ffhaKkge2kroIxbHq1X-44" value="FK" style="shape=partialRectangle;connectable=0;fillColor=none;top=0;left=0;bottom=0;right=0;editable=1;overflow=hidden;whiteSpace=wrap;html=1;" vertex="1" parent="5ffhaKkge2kroIxbHq1X-43">
          <mxGeometry width="30" height="30" as="geometry">
            <mxRectangle width="30" height="30" as="alternateBounds" />
          </mxGeometry>
        </mxCell>
        <mxCell id="5ffhaKkge2kroIxbHq1X-45" value="IDpedido INT" style="shape=partialRectangle;connectable=0;fillColor=none;top=0;left=0;bottom=0;right=0;align=left;spacingLeft=6;overflow=hidden;whiteSpace=wrap;html=1;" vertex="1" parent="5ffhaKkge2kroIxbHq1X-43">
          <mxGeometry x="30" width="150" height="30" as="geometry">
            <mxRectangle width="150" height="30" as="alternateBounds" />
          </mxGeometry>
        </mxCell>
        <mxCell id="5ffhaKkge2kroIxbHq1X-46" value="" style="shape=tableRow;horizontal=0;startSize=0;swimlaneHead=0;swimlaneBody=0;fillColor=none;collapsible=0;dropTarget=0;points=[[0,0.5],[1,0.5]];portConstraint=eastwest;top=0;left=0;right=0;bottom=0;" vertex="1" parent="5ffhaKkge2kroIxbHq1X-39">
          <mxGeometry y="90" width="180" height="30" as="geometry" />
        </mxCell>
        <mxCell id="5ffhaKkge2kroIxbHq1X-47" value="" style="shape=partialRectangle;connectable=0;fillColor=none;top=0;left=0;bottom=0;right=0;editable=1;overflow=hidden;whiteSpace=wrap;html=1;" vertex="1" parent="5ffhaKkge2kroIxbHq1X-46">
          <mxGeometry width="30" height="30" as="geometry">
            <mxRectangle width="30" height="30" as="alternateBounds" />
          </mxGeometry>
        </mxCell>
        <mxCell id="5ffhaKkge2kroIxbHq1X-48" value="Formapagamento VARCHAR(30)" style="shape=partialRectangle;connectable=0;fillColor=none;top=0;left=0;bottom=0;right=0;align=left;spacingLeft=6;overflow=hidden;whiteSpace=wrap;html=1;" vertex="1" parent="5ffhaKkge2kroIxbHq1X-46">
          <mxGeometry x="30" width="150" height="30" as="geometry">
            <mxRectangle width="150" height="30" as="alternateBounds" />
          </mxGeometry>
        </mxCell>
        <mxCell id="5ffhaKkge2kroIxbHq1X-49" value="" style="shape=tableRow;horizontal=0;startSize=0;swimlaneHead=0;swimlaneBody=0;fillColor=none;collapsible=0;dropTarget=0;points=[[0,0.5],[1,0.5]];portConstraint=eastwest;top=0;left=0;right=0;bottom=0;" vertex="1" parent="5ffhaKkge2kroIxbHq1X-39">
          <mxGeometry y="120" width="180" height="30" as="geometry" />
        </mxCell>
        <mxCell id="5ffhaKkge2kroIxbHq1X-50" value="" style="shape=partialRectangle;connectable=0;fillColor=none;top=0;left=0;bottom=0;right=0;editable=1;overflow=hidden;whiteSpace=wrap;html=1;" vertex="1" parent="5ffhaKkge2kroIxbHq1X-49">
          <mxGeometry width="30" height="30" as="geometry">
            <mxRectangle width="30" height="30" as="alternateBounds" />
          </mxGeometry>
        </mxCell>
        <mxCell id="5ffhaKkge2kroIxbHq1X-51" value="StatusPagamento VARCHAR(20)" style="shape=partialRectangle;connectable=0;fillColor=none;top=0;left=0;bottom=0;right=0;align=left;spacingLeft=6;overflow=hidden;whiteSpace=wrap;html=1;" vertex="1" parent="5ffhaKkge2kroIxbHq1X-49">
          <mxGeometry x="30" width="150" height="30" as="geometry">
            <mxRectangle width="150" height="30" as="alternateBounds" />
          </mxGeometry>
        </mxCell>
        <mxCell id="1ARL4fC9_Qn_OWLWRrNi-6" value="" style="shape=tableRow;horizontal=0;startSize=0;swimlaneHead=0;swimlaneBody=0;fillColor=none;collapsible=0;dropTarget=0;points=[[0,0.5],[1,0.5]];portConstraint=eastwest;top=0;left=0;right=0;bottom=0;" vertex="1" parent="5ffhaKkge2kroIxbHq1X-39">
          <mxGeometry y="150" width="180" height="30" as="geometry" />
        </mxCell>
        <mxCell id="1ARL4fC9_Qn_OWLWRrNi-7" value="" style="shape=partialRectangle;connectable=0;fillColor=none;top=0;left=0;bottom=0;right=0;editable=1;overflow=hidden;whiteSpace=wrap;html=1;" vertex="1" parent="1ARL4fC9_Qn_OWLWRrNi-6">
          <mxGeometry width="30" height="30" as="geometry">
            <mxRectangle width="30" height="30" as="alternateBounds" />
          </mxGeometry>
        </mxCell>
        <mxCell id="1ARL4fC9_Qn_OWLWRrNi-8" value="DataPagamento DATE" style="shape=partialRectangle;connectable=0;fillColor=none;top=0;left=0;bottom=0;right=0;align=left;spacingLeft=6;overflow=hidden;whiteSpace=wrap;html=1;" vertex="1" parent="1ARL4fC9_Qn_OWLWRrNi-6">
          <mxGeometry x="30" width="150" height="30" as="geometry">
            <mxRectangle width="150" height="30" as="alternateBounds" />
          </mxGeometry>
        </mxCell>
        <mxCell id="Rnt1Na-v6dvk4qRwiW0D-0" value="" style="edgeStyle=entityRelationEdgeStyle;fontSize=12;html=1;endArrow=ERmany;rounded=0;exitX=1;exitY=0.5;exitDx=0;exitDy=0;entryX=0;entryY=0.5;entryDx=0;entryDy=0;" edge="1" parent="uIQlPOTaQAm2R-Ba2l15-1" source="qXBiPnk9skGaxRua_lNI-1" target="5ffhaKkge2kroIxbHq1X-33">
          <mxGeometry width="100" height="100" relative="1" as="geometry">
            <mxPoint x="250" y="320" as="sourcePoint" />
            <mxPoint x="350" y="220" as="targetPoint" />
          </mxGeometry>
        </mxCell>
        <mxCell id="Rnt1Na-v6dvk4qRwiW0D-1" value="" style="edgeStyle=entityRelationEdgeStyle;fontSize=12;html=1;endArrow=ERmandOne;startArrow=ERmandOne;rounded=0;entryX=1;entryY=0.5;entryDx=0;entryDy=0;exitX=0;exitY=0.5;exitDx=0;exitDy=0;" edge="1" parent="uIQlPOTaQAm2R-Ba2l15-1" source="5ffhaKkge2kroIxbHq1X-43" target="5ffhaKkge2kroIxbHq1X-27">
          <mxGeometry width="100" height="100" relative="1" as="geometry">
            <mxPoint x="390" y="330" as="sourcePoint" />
            <mxPoint x="490" y="230" as="targetPoint" />
          </mxGeometry>
        </mxCell>
        <mxCell id="Rnt1Na-v6dvk4qRwiW0D-8" value="" style="edgeStyle=entityRelationEdgeStyle;fontSize=12;html=1;endArrow=ERmany;startArrow=ERmany;rounded=0;exitX=1;exitY=0.5;exitDx=0;exitDy=0;" edge="1" parent="uIQlPOTaQAm2R-Ba2l15-1" source="5ffhaKkge2kroIxbHq1X-1" target="5ffhaKkge2kroIxbHq1X-20">
          <mxGeometry width="100" height="100" relative="1" as="geometry">
            <mxPoint x="490" y="410" as="sourcePoint" />
            <mxPoint x="590" y="310" as="targetPoint" />
          </mxGeometry>
        </mxCell>
        <mxCell id="Rnt1Na-v6dvk4qRwiW0D-9" value="" style="edgeStyle=entityRelationEdgeStyle;fontSize=12;html=1;endArrow=ERmany;rounded=0;exitX=0.984;exitY=0.767;exitDx=0;exitDy=0;exitPerimeter=0;" edge="1" parent="uIQlPOTaQAm2R-Ba2l15-1" source="5ffhaKkge2kroIxbHq1X-27" target="5ffhaKkge2kroIxbHq1X-17">
          <mxGeometry width="100" height="100" relative="1" as="geometry">
            <mxPoint x="220" y="230" as="sourcePoint" />
            <mxPoint x="320" y="250" as="targetPoint" />
          </mxGeometry>
        </mxCell>
      </root>
    </mxGraphModel>
  </diagram>
</mxfile>
